<?xml version="1.0" encoding="UTF-8"?>
<svg version="1.1" xmlns="http://www.w3.org/2000/svg" width="2000" height="581">
<path d="M0 0 C0.94587982 0.00182281 1.89175964 0.00364563 2.86630249 0.00552368 C17.0536207 0.05151199 30.92507842 0.50637306 44.875 3.3125 C45.7942627 3.49474121 46.71352539 3.67698242 47.66064453 3.86474609 C54.11087032 5.17626644 60.4979565 6.68445181 66.875 8.3125 C67.60847656 8.49506348 68.34195312 8.67762695 69.09765625 8.86572266 C117.69217527 21.16195259 165.13649538 52.6973645 195.875 92.3125 C196.89289143 93.5901129 197.91114582 94.86743668 198.9296875 96.14453125 C206.76009902 106.06607808 213.53092645 116.38853783 219.875 127.3125 C220.26929199 127.97475586 220.66358398 128.63701172 221.06982422 129.31933594 C223.875 134.0835845 223.875 134.0835845 223.875 136.3125 C224.52758789 136.32708252 225.18017578 136.34166504 225.85253906 136.35668945 C258.30099063 137.16079732 291.02108867 140.53254437 315.18359375 164.61328125 C330.13315782 181.95244425 334.10569463 204.01054086 334.125 226.25 C334.12601212 227.29303787 334.12601212 227.29303787 334.12704468 228.35714722 C334.08703418 254.27534917 327.61714796 276.57035204 308.94140625 295.24609375 C291.12614602 311.87613916 267.04618629 315.36948638 243.875 318.3125 C243.63491211 319.09036865 243.39482422 319.8682373 243.14746094 320.66967773 C229.96658833 362.90612865 209.31983301 398.19930758 178.875 430.3125 C177.80765625 431.44365234 177.80765625 431.44365234 176.71875 432.59765625 C171.49145606 437.98562521 165.73289243 442.63115739 159.875 447.3125 C159.11832031 447.94800781 158.36164063 448.58351563 157.58203125 449.23828125 C118.28980591 481.90290232 64.21850927 503.25480411 12.9609375 503.515625 C12.03683075 503.52268463 11.112724 503.52974426 10.16061401 503.53701782 C-28.53622092 503.76552246 -28.53622092 503.76552246 -45.125 500.3125 C-46.10130371 500.11382324 -47.07760742 499.91514648 -48.08349609 499.71044922 C-106.01478084 487.59036379 -160.66589884 456.65388041 -197.125 409.3125 C-197.88554687 408.38050781 -198.64609375 407.44851563 -199.4296875 406.48828125 C-241.70008885 353.75156646 -256.99987306 285.60458434 -250.125 219.3125 C-244.72884467 176.02858904 -227.57725912 132.38943591 -200.125 98.3125 C-199.40957031 97.40628906 -198.69414062 96.50007813 -197.95703125 95.56640625 C-155.6929006 42.82974765 -95.29843848 9.00300908 -28.12362671 0.96156311 C-18.76782318 -0.04722986 -9.40008945 -0.03767592 0 0 Z M240.875 176.3125 C241.11734375 177.30765625 241.3596875 178.3028125 241.609375 179.328125 C243.52527742 187.27632241 245.34296671 195.24364604 247 203.25 C247.23734863 204.35359863 247.23734863 204.35359863 247.47949219 205.47949219 C250.8456083 222.08425366 251.14027083 238.56000773 251 255.4375 C250.98993803 257.57161033 250.98081794 259.70572531 250.97265625 261.83984375 C250.95092543 266.9975138 250.91657764 272.15495334 250.875 277.3125 C252.32164124 276.84266789 253.76724534 276.36964153 255.21240234 275.89526367 C256.01753265 275.63218918 256.82266296 275.36911469 257.65219116 275.09806824 C266.18971617 272.08080091 273.16958031 265.44346838 277.34765625 257.51953125 C285.08723304 240.07727803 285.59387537 218.43285989 278.84375 200.5859375 C273.93812184 189.61456641 265.83346629 183.7316805 254.875 179.3125 C250.23752323 177.7686164 245.7861849 176.3125 240.875 176.3125 Z " fill="#0B206D" transform="translate(273.125,5.6875)"/>
<path d="M0 0 C0.9735012 0.03758391 1.94700239 0.07516783 2.95000362 0.11389065 C30.33308232 1.36301856 57.37461056 7.99878155 77.32983398 27.88647461 C92.27939805 45.22563761 96.25193486 67.28373422 96.27124023 89.52319336 C96.27191498 90.21855194 96.27258972 90.91391052 96.27328491 91.63034058 C96.23327441 117.54854253 89.76338819 139.8435454 71.08764648 158.51928711 C52.78045139 175.60853991 25.9211057 180.78335485 1.64819336 180.69921875 C-0.02141953 180.69943779 -0.02141953 180.69943779 -1.72476196 180.69966125 C-5.38236479 180.69896785 -9.0399159 180.69120232 -12.69750977 180.68334961 C-15.24198377 180.6814834 -17.78645813 180.68006045 -20.33093262 180.67906189 C-26.33014132 180.67564149 -32.32932802 180.66777012 -38.32852793 180.6577124 C-45.16292184 180.64650507 -51.99731667 180.6410292 -58.83171749 180.63601696 C-72.88074173 180.62558616 -86.92974974 180.60801561 -100.97875977 180.58569336 C-100.91719645 189.74901026 -100.83984224 198.91202513 -100.74304485 208.07503796 C-100.69856507 212.3310928 -100.65926157 216.58705683 -100.63232422 220.84326172 C-100.60606531 224.96076115 -100.565509 229.07790681 -100.5155735 233.19518471 C-100.49905583 234.75577665 -100.48744858 236.31642955 -100.48114586 237.87709618 C-100.42764123 249.92249428 -99.45003866 260.64313557 -93.97875977 271.58569336 C-115.09875977 271.58569336 -136.21875977 271.58569336 -157.97875977 271.58569336 C-156.65875977 268.61569336 -155.33875977 265.64569336 -153.97875977 262.58569336 C-151.99144804 256.00185478 -151.68995359 249.39461199 -151.72479248 242.56016541 C-151.7216725 241.60242 -151.71855252 240.64467459 -151.71533799 239.65790659 C-151.70741533 236.47613784 -151.71365915 233.29456285 -151.7199707 230.11279297 C-151.71725832 227.82053008 -151.71369599 225.52826806 -151.70935059 223.23600769 C-151.70025437 217.02956009 -151.70375931 210.82317918 -151.71010876 204.61673045 C-151.71518245 198.11334606 -151.71047355 191.60996727 -151.70733643 185.10658264 C-151.70346838 173.48896679 -151.70967176 161.8713813 -151.7198551 150.25377024 C-151.72879183 139.73280451 -151.72723562 129.21188291 -151.71801758 118.69091797 C-151.70730081 106.45376903 -151.70333768 94.2166515 -151.70924211 81.97949797 C-151.71235654 75.50880694 -151.71278552 69.03814627 -151.70616913 62.5674572 C-151.70038328 56.48449623 -151.70441534 50.40161846 -151.71595764 44.31866646 C-151.71859747 42.08904788 -151.71785073 39.85942228 -151.71343231 37.62980652 C-151.70794879 34.58118968 -151.71484506 31.53283774 -151.72479248 28.48423767 C-151.72033104 27.60679254 -151.71586959 26.72934741 -151.71127295 25.82531303 C-151.75911654 18.24016842 -152.62221682 11.12417245 -156.60375977 4.52319336 C-157.04977539 3.7690918 -157.49579102 3.01499023 -157.95532227 2.23803711 C-158.29305664 1.69276367 -158.63079102 1.14749023 -158.97875977 0.58569336 C-140.50492956 0.43072092 -122.03105664 0.28273244 -103.55710697 0.14272976 C-94.97651858 0.07754544 -86.39595797 0.01020015 -77.81542969 -0.0625 C-70.32390103 -0.12596762 -62.83235188 -0.18510832 -55.34075063 -0.23936218 C-51.38560766 -0.26814809 -47.43050487 -0.29888988 -43.47542 -0.33484077 C-28.97708618 -0.46530118 -14.49194187 -0.56208078 0 0 Z M3.02124023 39.58569336 C3.26358398 40.58084961 3.50592773 41.57600586 3.75561523 42.60131836 C5.67151766 50.54951577 7.48920695 58.5168394 9.14624023 66.52319336 C9.38358887 67.62679199 9.38358887 67.62679199 9.62573242 68.75268555 C12.99184854 85.35744702 13.28651107 101.83320108 13.14624023 118.71069336 C13.13617827 120.84480369 13.12705817 122.97891867 13.11889648 125.11303711 C13.09716566 130.27070716 13.06281788 135.4281467 13.02124023 140.58569336 C14.46788148 140.11586125 15.91348558 139.64283489 17.35864258 139.16845703 C18.16377289 138.90538254 18.9689032 138.64230804 19.7984314 138.3712616 C28.33595641 135.35399427 35.31582054 128.71666174 39.49389648 120.79272461 C47.23347327 103.35047138 47.74011561 81.70605325 40.98999023 63.85913086 C36.08436208 52.88775977 27.97970652 47.00487386 17.02124023 42.58569336 C12.38376346 41.04180976 7.93242513 39.58569336 3.02124023 39.58569336 Z " fill="#00A3A3" transform="translate(510.978759765625,142.414306640625)"/>
<path d="M0 0 C24.42 0 48.84 0 74 0 C73.01 0.99 72.02 1.98 71 3 C68.82642523 9.5207243 70.0037032 15.29083145 72.375 21.5625 C72.6433667 22.29678223 72.9117334 23.03106445 73.18823242 23.78759766 C75.71349677 30.54269734 78.64266307 37.11005785 81.56542969 43.69995117 C88.85528109 60.30739063 95.28672012 77.28474362 101.89349365 94.17193604 C102.98503997 96.96176441 104.07759947 99.75119403 105.17041016 102.54052734 C113.18408556 122.99989816 121.14992177 143.47724034 129 164 C133.57094399 153.59672748 137.37378947 142.9194327 141.24078369 132.24057007 C148.70031538 111.65143321 156.26934567 91.10404131 163.91814041 70.5846138 C164.61353921 68.71825919 165.30798308 66.85154887 166.00241089 64.98483276 C171.60177855 49.93693656 177.30984763 34.93936732 183.22494507 20.01252747 C184.54093991 16.59538158 185.20708549 13.77567103 185.3125 10.125 C185.34988281 9.28195313 185.38726563 8.43890625 185.42578125 7.5703125 C185.09685059 4.28623184 185.09685059 4.28623184 181 0 C205.09 0 229.18 0 254 0 C253.01 0.99 252.02 1.98 251 3 C246.99447217 15.01658349 254.68190999 27.88326968 259.3125 38.75 C266.72384968 56.36396415 273.3358944 74.27060181 279.96118164 92.19146729 C281.0384406 95.1039274 282.11760228 98.01567649 283.19726562 100.92724609 C286.81390436 110.68082125 290.42610933 120.43603815 294.02734375 130.1953125 C294.35155807 131.07343094 294.6757724 131.95154938 295.0098114 132.85627747 C296.77235807 137.63872841 298.51818188 142.42677512 300.24658203 147.22167969 C300.6139296 148.23914276 300.98127716 149.25660583 301.35975647 150.30490112 C302.06835284 152.27008227 302.77452947 154.23613799 303.47801208 156.20315552 C303.95211266 157.51774246 303.95211266 157.51774246 304.43579102 158.85888672 C304.71439468 159.63610077 304.99299835 160.41331482 305.28004456 161.21408081 C305.86119562 162.99167609 305.86119562 162.99167609 307 164 C307.63893188 162.45904663 307.63893188 162.45904663 308.29077148 160.88696289 C308.57694839 160.19677567 308.86312531 159.50658844 309.15797424 158.79548645 C309.81312723 157.21540304 310.46826797 155.63531455 311.12339783 154.05522156 C313.00402083 149.5194447 314.88487859 144.98376539 316.76611328 140.44824219 C320.59730732 131.21085355 324.42601628 121.97246061 328.24609375 112.73046875 C329.6218923 109.40343735 330.99822096 106.07662577 332.375 102.75 C332.88930573 101.50727325 332.88930573 101.50727325 333.41400146 100.23944092 C337.57761294 90.1848474 341.77348258 80.14447472 346.01171875 70.12109375 C346.43362488 69.12326874 346.85553101 68.12544373 347.29022217 67.09738159 C349.32501527 62.2876178 351.36310022 57.47927882 353.40576172 52.67285156 C355.25386758 48.32039816 357.08737716 43.96205077 358.91046143 39.59906006 C359.65181281 37.8305896 360.39788771 36.06409347 361.14813232 34.29937744 C362.27735875 31.63851391 363.38845873 28.97069294 364.49609375 26.30078125 C365.00427391 25.11804878 365.00427391 25.11804878 365.52272034 23.91142273 C368.34891568 17.01016943 370.20423825 9.34746084 368 2 C367.01 1.67 366.02 1.34 365 1 C365 0.67 365 0.34 365 0 C388.76 0 412.52 0 437 0 C435.35 1.32 433.7 2.64 432 4 C426.2851481 9.64784359 422.08179958 15.65551237 418.375 22.75 C417.58416016 24.2364502 417.58416016 24.2364502 416.77734375 25.75292969 C403.33931898 51.34952364 390.92023493 77.53206532 378.8671875 103.8046875 C376.47854998 108.99985216 374.0043011 114.14872417 371.5012207 119.28955078 C348.29510309 162.31316622 348.29510309 162.31316622 341 209 C341.66 210.32 342.32 211.64 343 213 C318.91 213 294.82 213 270 213 C271.485 210.525 271.485 210.525 273 208 C274.50442978 200.16633182 271.70233932 192.81043361 269.11328125 185.51953125 C268.70773514 184.34276321 268.30218903 183.16599518 267.88435364 181.9535675 C263.53943156 169.44990113 258.88558023 157.06174124 254.1875 144.6875 C252.34653559 139.8147152 250.50927934 134.94053439 248.671875 130.06640625 C248.20655869 128.83347839 247.74124237 127.60055054 247.26182556 126.33026123 C241.65205768 111.45837012 236.14977847 96.54674548 230.6499939 81.63388062 C229.82813995 79.40547942 229.00579932 77.17725764 228.18292236 74.94923401 C227.44283076 72.94531277 226.70383643 70.94098574 225.96624756 68.93614197 C223.99778275 63.6076652 221.93729647 58.33609048 219.7334137 53.10006714 C219 51 219 51 219 48 C218.34 48 217.68 48 217 48 C216.78283325 48.80328735 216.78283325 48.80328735 216.5612793 49.62280273 C214.40871541 57.19611925 211.58666483 64.47767948 208.70547485 71.7946167 C207.78718732 74.12678648 206.87390323 76.46086608 205.96166992 78.79541016 C203.64044875 84.73209973 201.30986134 90.66510244 198.97949219 96.59820557 C170.78962341 154.1004344 170.78962341 154.1004344 166 213 C141.91 213 117.82 213 93 213 C93.99 211.02 94.98 209.04 96 207 C96.49013104 201.73498272 95.49620263 197.17183475 93.95703125 192.171875 C93.73473343 191.43604187 93.51243561 190.70020874 93.28340149 189.94207764 C90.64362014 181.4788551 87.20036748 173.37985162 83.6875 165.25 C82.98259708 163.59999815 82.27843054 161.94968155 81.57495117 160.29907227 C79.75540222 156.03714267 77.92373073 151.78054322 76.08825684 147.52545166 C75.02375598 145.05512905 73.96281793 142.58331196 72.90332031 140.11083984 C60.82486929 111.9259983 48.41487932 83.89785316 35.44970703 56.10791016 C34.48197113 54.03325909 33.51680709 51.95740645 32.55419922 49.88037109 C23.67992993 30.76214121 15.0231472 15.0231472 0 0 Z " fill="#00A4A4" transform="translate(1118,202)"/>
<path d="M0 0 C0.97784454 -0.00570007 1.95568909 -0.01140015 2.96316528 -0.01727295 C5.02198226 -0.02665215 7.08081376 -0.03322844 9.13964844 -0.03710938 C12.21577757 -0.04674335 15.29121643 -0.07780634 18.3671875 -0.109375 C49.63980912 -0.27681135 80.42672876 4.76722774 103.5859375 27.3515625 C111.17376093 35.3738033 116.06454563 44.51705119 119.6328125 54.890625 C119.98400146 55.89403931 119.98400146 55.89403931 120.34228516 56.91772461 C125.68337232 73.45977986 125.82349975 89.99891135 125.82421875 107.1953125 C125.83601755 109.67815926 125.84938779 112.16099899 125.86424255 114.64382935 C125.90017187 121.1331327 125.92055561 127.62237372 125.93579102 134.11175537 C125.96076748 144.51621325 126.00051632 154.9205336 126.05769157 165.32486343 C126.07390562 168.93803469 126.07778645 172.55107314 126.08070374 176.16427612 C126.09048547 178.39321111 126.10074963 180.62214405 126.11157227 182.85107422 C126.10901932 183.84145187 126.10646637 184.83182953 126.10383606 185.85221863 C126.16623815 194.45537707 126.53053018 203.46801541 131.5078125 210.765625 C134.3828125 215.06436902 134.3828125 215.06436902 134.3828125 217.203125 C115.9028125 217.203125 97.4228125 217.203125 78.3828125 217.203125 C78.3828125 210.273125 78.3828125 203.343125 78.3828125 196.203125 C77.0215625 197.21375 75.6603125 198.224375 74.2578125 199.265625 C41.08707879 222.35917379 -7.62433799 226.01814352 -46.7409668 219.68359375 C-64.90603992 216.26997228 -81.58637291 209.68056241 -92.74609375 194.26171875 C-103.5208945 177.77210655 -106.09490159 158.17453278 -102.5546875 138.953125 C-98.35299218 122.06817263 -88.44243056 109.13175319 -73.6171875 100.203125 C-35.78391992 80.04777712 15.09225113 82.48603509 55.15625 94.48974609 C63.17863526 97.06007611 70.88494543 100.36911733 78.3828125 104.203125 C76.38027024 72.30716107 76.38027024 72.30716107 59.796875 45.9453125 C50.87967456 39.50992189 41.18644725 35.96382167 30.3828125 34.203125 C29.59003906 34.07292969 28.79726563 33.94273437 27.98046875 33.80859375 C-11.81650535 28.70641758 -52.32126372 40.91131728 -85.6171875 62.203125 C-85.6672998 61.6455249 -85.71741211 61.0879248 -85.76904297 60.51342773 C-86.70547095 50.17768352 -87.68413494 39.88743869 -89.25 29.625 C-89.69614821 25.46727842 -89.69138826 21.37956779 -89.6171875 17.203125 C-60.86416376 6.88622264 -30.65747895 0.14390141 0 0 Z M-49.4609375 133.0859375 C-51.03624201 135.05506814 -52.35375233 137.02234417 -53.6171875 139.203125 C-53.95621094 139.78449219 -54.29523437 140.36585938 -54.64453125 140.96484375 C-58.37807924 148.89648256 -57.93319755 159.58870444 -55.0546875 167.703125 C-51.01716519 176.18614227 -44.25892002 180.93847049 -35.6171875 184.203125 C-5.16098221 192.98856883 33.05542209 190.6912987 61.5078125 176.328125 C69.55622078 171.56831365 75.87083533 165.4032414 78.3828125 156.203125 C79.45408659 149.66388942 78.04173131 144.66743139 74.3828125 139.203125 C62.68092256 125.16085707 43.56369776 121.41589349 26.27734375 119.63671875 C3.45250498 117.69275881 -31.83591856 115.08750714 -49.4609375 133.0859375 Z " fill="#00A4A4" transform="translate(902.6171875,197.796875)"/>
<path d="M0 0 C0.97784454 -0.00570007 1.95568909 -0.01140015 2.96316528 -0.01727295 C5.02198226 -0.02665215 7.08081376 -0.03322844 9.13964844 -0.03710938 C12.21577757 -0.04674335 15.29121643 -0.07780634 18.3671875 -0.109375 C49.63980912 -0.27681135 80.42672876 4.76722774 103.5859375 27.3515625 C111.17376093 35.3738033 116.06454563 44.51705119 119.6328125 54.890625 C119.98400146 55.89403931 119.98400146 55.89403931 120.34228516 56.91772461 C125.7098563 73.54180426 125.82350376 90.16773345 125.82421875 107.44921875 C125.83601646 109.95688131 125.84938645 112.46453692 125.86424255 114.97218323 C125.90383166 122.19320108 125.92373529 129.41417496 125.94041443 136.63527679 C125.96445885 146.47944362 126.00410048 156.32350717 126.05769157 166.16755867 C126.07392275 169.82010798 126.07778793 173.47252603 126.08070374 177.12510681 C126.09048379 179.37434106 126.10074768 181.62357327 126.11157227 183.87280273 C126.10901932 184.8761264 126.10646637 185.87945007 126.10383606 186.91317749 C126.16442246 195.32847708 126.70175295 203.55207988 131.5078125 210.703125 C134.3828125 215.05001495 134.3828125 215.05001495 134.3828125 217.203125 C115.9028125 217.203125 97.4228125 217.203125 78.3828125 217.203125 C78.3828125 210.273125 78.3828125 203.343125 78.3828125 196.203125 C77.0215625 197.21375 75.6603125 198.224375 74.2578125 199.265625 C41.08707879 222.35917379 -7.62433799 226.01814352 -46.7409668 219.68359375 C-66.04550859 216.05584076 -82.85264974 208.76455078 -94.3046875 192.140625 C-103.91455795 176.37340049 -105.86162099 156.90794791 -102.5546875 138.953125 C-98.66233589 123.31130271 -89.94549406 111.18919438 -76.75390625 102.08203125 C-41.67152914 81.06755629 7.16767643 82.50765299 45.7800293 91.89599609 C57.15989468 94.81544402 67.90979617 98.84778534 78.3828125 104.203125 C76.38027024 72.30716107 76.38027024 72.30716107 59.796875 45.9453125 C50.87967456 39.50992189 41.18644725 35.96382167 30.3828125 34.203125 C29.59003906 34.07292969 28.79726562 33.94273437 27.98046875 33.80859375 C-11.81650535 28.70641758 -52.32126372 40.91131728 -85.6171875 62.203125 C-85.6672998 61.61523193 -85.71741211 61.02733887 -85.76904297 60.42163086 C-86.68801529 49.73675429 -87.63552475 39.09804796 -89.25 28.4921875 C-89.67479677 24.68709299 -89.67555056 21.0300744 -89.6171875 17.203125 C-60.86416376 6.88622264 -30.65747895 0.14390141 0 0 Z M-49.4609375 133.0859375 C-51.03624201 135.05506814 -52.35375233 137.02234417 -53.6171875 139.203125 C-53.95621094 139.78449219 -54.29523438 140.36585938 -54.64453125 140.96484375 C-58.37807924 148.89648256 -57.93319755 159.58870444 -55.0546875 167.703125 C-51.01716519 176.18614227 -44.25892002 180.93847049 -35.6171875 184.203125 C-5.16098221 192.98856883 33.05542209 190.6912987 61.5078125 176.328125 C68.34972996 172.31770876 75.62613231 166.23693958 77.921875 158.3515625 C79.27217369 152.05779741 79.11595029 146.7503581 76.0078125 141.015625 C72.39689066 135.62038347 67.96860589 132.39267027 62.3828125 129.203125 C61.59519531 128.74164063 60.80757812 128.28015625 59.99609375 127.8046875 C33.56741093 114.11321916 -27.20949559 110.36306674 -49.4609375 133.0859375 Z " fill="#00A4A4" transform="translate(1653.6171875,197.796875)"/>
<path d="M0 0 C18.81 0 37.62 0 57 0 C57.0226381 27.89606021 57.04103209 55.79211289 57.05181217 83.68817997 C57.05695223 96.64295342 57.06395093 109.59772073 57.07543945 122.55249023 C57.08545663 133.85359798 57.09187005 145.15470128 57.09408849 156.45581335 C57.09538373 162.43077899 57.09839348 168.4057319 57.10573006 174.38069344 C57.11260168 180.02360365 57.11459471 185.66649609 57.11310768 191.3094101 C57.11337907 193.36221094 57.11531725 195.41501249 57.11920547 197.46780968 C57.13827817 208.07242864 57.00905051 218.65526024 56.57493591 229.25193787 C56.52067022 230.63526655 56.52067022 230.63526655 56.46530825 232.04654127 C55.25626591 258.61249124 48.87929799 287.91094722 28.87890625 307.02734375 C9.58924665 322.93399391 -12.58133268 324.41717625 -36.49609375 322.71484375 C-60.76227925 320.23772075 -60.76227925 320.23772075 -67 314 C-66.6842707 307.13288768 -64.54911623 300.895149 -62.5 294.375 C-59.78762857 285.47912815 -57.88465682 277.35927534 -58 268 C-56.96552734 269.06734375 -56.96552734 269.06734375 -55.91015625 270.15625 C-45.31939701 280.72096944 -32.76787501 289.94572794 -17.25 290.25 C-11.33963526 290.15325296 -5.92437723 289.35610305 -1.2109375 285.55859375 C10.82470899 272.78183602 8.29420346 250.50264567 8.2746582 234.36035156 C8.27901116 231.97897686 8.28419624 229.59760355 8.29014587 227.2162323 C8.30347943 220.78063674 8.3041212 214.34510011 8.30158257 207.90949345 C8.30029471 203.88526374 8.30292977 199.86104281 8.30657005 195.83681488 C8.30716524 195.16676197 8.30776043 194.49670907 8.30837366 193.80635153 C8.30958551 192.44479205 8.31079964 191.08323257 8.31201603 189.7216731 C8.32286279 176.9878145 8.32074181 164.25398246 8.31463119 151.52012238 C8.30945609 139.88401469 8.32073816 128.24799057 8.33972941 116.61189941 C8.35911958 104.6389551 8.36736228 92.66605031 8.36360615 80.6930902 C8.36169699 73.98097279 8.36442117 67.26893715 8.37832069 60.55683136 C8.39089477 54.24973281 8.38895874 47.94280192 8.37590981 41.63570595 C8.37354417 39.32384243 8.3762782 37.01196711 8.38453293 34.70011711 C8.39500215 31.53989446 8.38689809 28.38023437 8.3742218 25.22003174 C8.38528323 23.85440578 8.38528323 23.85440578 8.39656812 22.46119142 C8.31556149 12.83501614 6.24063405 7.48876086 0 0 Z " fill="#00A3A3" transform="translate(1055,202)"/>
<path d="M0 0 C0.33 9.24 0.66 18.48 1 28 C2.52625 26.370625 4.0525 24.74125 5.625 23.0625 C20.15707938 8.27717178 39.40743583 0.25000049 60.109375 -0.30078125 C62.65617837 -0.32027799 65.20314674 -0.32372527 67.75 -0.3125 C68.4139679 -0.31034485 69.07793579 -0.3081897 69.76202393 -0.30596924 C89.3862592 -0.20367037 107.56676159 3.88831945 124 15 C124.99 15.66 125.98 16.32 127 17 C126.52709594 25.34458522 124.59062399 33.11931775 122.5 41.1875 C119.98583938 51.17803008 117.87507034 60.66653281 118 71 C117.030625 70.175 116.06125 69.35 115.0625 68.5 C114.41667969 67.95085937 113.77085937 67.40171875 113.10546875 66.8359375 C111.70898814 65.61822714 110.3358204 64.37322081 108.98828125 63.1015625 C91.13259197 46.40104721 67.68633785 37.41619955 43.41796875 37.79296875 C31.61977371 38.19723736 21.725685 43.75341687 13.625 52.25 C2.26269003 66.00559816 0.8463489 84.42644765 0.85473633 101.58349609 C0.85137772 102.58980576 0.8480191 103.59611542 0.84455872 104.63291931 C0.83512975 107.92977157 0.83310982 111.22657263 0.83203125 114.5234375 C0.82881356 116.83452372 0.82544911 119.14560975 0.82194519 121.45669556 C0.81597441 126.28982007 0.81410323 131.12292675 0.81469727 135.95605469 C0.81479888 142.12463229 0.8011379 148.29309479 0.78392506 154.46164513 C0.77276481 159.23168454 0.77077928 164.00169646 0.77130699 168.77174759 C0.77013328 171.04494245 0.76574603 173.31813816 0.75797462 175.59132004 C-0.3503187 195.90669504 -0.3503187 195.90669504 7 214 C7.66 214.99 8.32 215.98 9 217 C-12.45 217 -33.9 217 -56 217 C-54.35 215.02 -52.7 213.04 -51 211 C-48.09031207 205.18062414 -47.87455491 199.1148489 -47.85955811 192.7020874 C-47.85658698 191.98939485 -47.85361586 191.27670229 -47.8505547 190.542413 C-47.84191706 188.16595856 -47.84036366 185.78955479 -47.83886719 183.41308594 C-47.83423554 181.70430902 -47.82921041 179.99553312 -47.82382202 178.28675842 C-47.81072992 173.65229295 -47.80425936 169.01784193 -47.79981136 164.38336086 C-47.79687563 161.48499547 -47.79276989 158.58663399 -47.78830719 155.68827057 C-47.77464099 146.61135908 -47.7649699 137.53445657 -47.7611053 128.45753551 C-47.75662584 117.99538501 -47.73907945 107.53336525 -47.7101047 97.07125449 C-47.6884595 88.97337699 -47.67839951 80.8755362 -47.67706418 72.77763009 C-47.67601824 67.94610069 -47.67015527 63.11469433 -47.65224457 58.2831955 C-47.63571463 53.73592155 -47.63363219 49.1888625 -47.64238358 44.64156914 C-47.6431513 42.97837433 -47.63884628 41.31516773 -47.62892532 39.65200233 C-47.5641593 28.11219233 -47.52327719 17.70582343 -56 9 C-55.20118408 8.93530518 -54.40236816 8.87061035 -53.5793457 8.80395508 C-36.13109284 7.34586638 -16.70925982 0 0 0 Z " fill="#00A4A4" transform="translate(679,198)"/>
<path d="M0 0 C0.00203479 0.94535138 0.00203479 0.94535138 0.00411069 1.90980077 C0.08481273 39.28719826 0.17578859 76.66455768 0.28005161 114.04189713 C0.29257004 118.53281403 0.30500288 123.02373116 0.31738281 127.51464844 C0.31984881 128.40868514 0.3223148 129.30272185 0.32485552 130.22385058 C0.36454709 144.68781988 0.39731035 159.15179695 0.42749982 173.61578885 C0.45864644 188.46423306 0.49726952 203.31264434 0.54279006 218.16105151 C0.57062979 227.31857694 0.59268235 236.47607836 0.60726251 245.63363466 C0.61782876 251.91875728 0.63567664 258.20383335 0.65916704 264.48892084 C0.67249429 268.11159721 0.68269111 271.73420851 0.68421364 275.35691071 C0.68595269 279.29393215 0.70306662 283.23080533 0.7215271 287.16778564 C0.71959237 288.30011604 0.71765763 289.43244643 0.71566427 290.59908986 C0.79797655 302.38458429 1.78745923 312.38327897 9 322 C-12.12 322 -33.24 322 -55 322 C-55 321.34 -55 320.68 -55 320 C-54.401875 319.505 -53.80375 319.01 -53.1875 318.5 C-47.38731837 311.871221 -47.56488717 302.53630736 -47.61231995 294.16566467 C-47.60693441 293.01331988 -47.60154887 291.86097509 -47.59600013 290.67371076 C-47.58175441 286.83322613 -47.58881615 282.99308781 -47.59594727 279.15258789 C-47.59188343 276.39066175 -47.58337713 273.628753 -47.57514954 270.86683655 C-47.5579984 264.15612999 -47.55711379 257.44551722 -47.56236244 250.73479445 C-47.56641204 245.27792845 -47.56495123 239.82109007 -47.55961418 234.36422539 C-47.55886576 233.58610437 -47.55811734 232.80798335 -47.55734624 232.00628291 C-47.55581468 230.42528728 -47.55427634 228.84429167 -47.55273127 227.26329606 C-47.53901972 212.45441897 -47.54443458 197.64559478 -47.55591648 182.83671891 C-47.56584883 169.30382687 -47.55290579 155.77107156 -47.52898229 142.23820061 C-47.50457096 128.32397401 -47.49498833 114.40981103 -47.50163502 100.49556345 C-47.50512254 92.69121126 -47.50292598 84.88696419 -47.48538399 77.08262825 C-47.47063659 70.43952532 -47.47005964 63.79660157 -47.4874549 57.15350205 C-47.49594646 53.76766367 -47.49597814 50.3824067 -47.48280334 46.99654388 C-47.46958422 43.31783572 -47.48115079 39.63999043 -47.49879456 35.96131897 C-47.48918955 34.902934 -47.47958454 33.84454904 -47.46968848 32.7540918 C-47.54708812 24.88303076 -48.60352213 16.67278668 -54.13866717 10.6873489 C-54.752907 10.13052376 -55.36714684 9.57369863 -56 9 C-55.14994385 8.93006836 -54.2998877 8.86013672 -53.42407227 8.78808594 C-28.70433558 6.82081445 -28.70433558 6.82081445 -4.69140625 0.87890625 C-2 0 -2 0 0 0 Z " fill="#00A3A3" transform="translate(1864,93)"/>
<path d="M0 0 C1.3293306 0.00067978 1.3293306 0.00067978 2.68551636 0.00137329 C3.61397369 -0.00198532 4.54243103 -0.00534393 5.49902344 -0.00880432 C8.58626625 -0.01834807 11.673455 -0.02025936 14.76071167 -0.02133179 C16.89964826 -0.02454278 19.03858463 -0.02790673 21.17752075 -0.03141785 C25.67009999 -0.03741824 30.16265996 -0.03925689 34.65524292 -0.03866577 C40.41336453 -0.03856428 46.17136248 -0.05219919 51.9294548 -0.06943798 C56.35094775 -0.08055691 60.77241083 -0.08258498 65.19391632 -0.08205605 C67.31659622 -0.08323699 69.43927687 -0.08766515 71.56194305 -0.09538841 C74.53290952 -0.10518286 77.5036081 -0.10231196 80.47457886 -0.09628296 C81.79176407 -0.10471222 81.79176407 -0.10471222 83.13555908 -0.11331177 C87.43292743 -0.09114557 90.99420103 -0.02223093 94.83883667 2.14663696 C98.71899871 9.31983127 99.75004127 18.90405279 101.46383667 26.83413696 C101.77321167 28.2468689 101.77321167 28.2468689 102.08883667 29.68814087 C105.24982181 44.96709095 106.1537798 60.12152011 106.04464722 75.69204712 C106.02606938 78.43611722 106.02414066 81.17985342 106.02438354 83.92398071 C106.01947729 85.6909107 106.01365292 87.45783843 106.00680542 89.22476196 C106.0056926 90.03415222 106.00457977 90.84354248 106.00343323 91.67745972 C105.96775061 95.94101171 105.6804709 99.94728095 104.83883667 104.14663696 C102.90382931 104.63577237 100.96563327 105.11229414 99.02633667 105.58413696 C97.94739136 105.8509729 96.86844604 106.11780884 95.75680542 106.39273071 C84.614811 108.53670372 73.33654917 108.30985418 62.03805542 108.31460571 C60.22969029 108.31782501 58.42132542 108.32118958 56.61296082 108.32469177 C52.84343867 108.33064609 49.07393935 108.3325352 45.30441284 108.3319397 C40.48158454 108.3318376 35.65890188 108.3455549 30.83610821 108.36271191 C27.11029896 108.37383542 23.3845251 108.37585889 19.65870094 108.37532997 C17.8801504 108.37650704 16.10159886 108.38091345 14.3230648 108.38866234 C11.8395294 108.39848122 9.35631297 108.39557811 6.87277222 108.38955688 C6.14486481 108.39517639 5.4169574 108.4007959 4.66699219 108.40658569 C0.36186653 108.38012008 -3.24489089 107.99036735 -7.16116333 106.14663696 C-8.89372349 103.39787034 -9.41164862 101.27677458 -9.41513062 98.05473328 C-9.42077026 97.24870163 -9.42640991 96.44266998 -9.43222046 95.61221313 C-9.428172 94.73677856 -9.42412354 93.86134399 -9.41995239 92.9593811 C-9.42345703 92.03048569 -9.42696167 91.10159027 -9.43057251 90.14454651 C-9.43937582 87.07355275 -9.43354507 84.00278933 -9.42678833 80.93179321 C-9.4281355 78.79714412 -9.43007646 76.66249533 -9.43258667 74.52784729 C-9.43553613 70.05317261 -9.43124637 65.57857776 -9.42190552 61.10391235 C-9.41051804 55.36940426 -9.41706718 49.63508352 -9.42905045 43.90058231 C-9.43627969 39.49195445 -9.43397608 35.08337095 -9.42879486 30.67474174 C-9.42746096 28.5604392 -9.42909701 26.44613263 -9.43375397 24.33183479 C-9.43883584 21.37554391 -9.43108513 18.41955571 -9.41995239 15.46328735 C-9.42400085 14.58987701 -9.42804932 13.71646667 -9.43222046 12.81658936 C-9.37465084 4.55982111 -9.02186416 0.04798322 0 0 Z " fill="#0B206D" transform="translate(419.1611633300781,179.85336303710938)"/>
<path d="M0 0 C9.30978242 7.47950384 14.21722888 18.0922494 15.69140625 29.78515625 C16.45738751 41.74112467 13.3710364 52.65911132 5.80078125 62.05078125 C1.07291611 67.04314234 -3.85736798 70.66059626 -10.12109375 73.47265625 C-10.77078125 73.79105469 -11.42046875 74.10945313 -12.08984375 74.4375 C-21.00921369 78.15962169 -33.01346373 77.9134641 -42.12109375 74.84765625 C-54.86765263 69.31321994 -63.90634595 60.43119263 -69.12109375 47.47265625 C-72.1754741 36.87037924 -71.39136587 23.1244268 -66.12109375 13.47265625 C-59.54008915 1.96442282 -50.66083887 -4.43204237 -38.12109375 -8.52734375 C-24.1892945 -11.29617932 -11.5066585 -8.28564176 0 0 Z " fill="#0B206C" transform="translate(1963.12109375,372.52734375)"/>
<path d="M0 0 C6.05625767 5.73483618 8.07584152 12.36922022 8.3125 20.5625 C8.00022462 28.72274886 6.42365239 33.69528202 0.4375 39.25 C-6.79050149 44.93355673 -15.18580057 46.76435468 -24.25 45.9375 C-33.0875516 44.53123267 -39.27722304 41.40006833 -44.59375 34.08984375 C-48.54964178 27.20941769 -49.13121851 19.30039749 -47.1875 11.6875 C-44.88203282 5.144958 -41.28477885 0.77430275 -35.125 -2.4375 C-24.06317843 -7.54637342 -10.17875655 -6.4595955 0 0 Z " fill="#00A4A4" transform="translate(1103.25,114.0625)"/>
<path d="M0 0 C3.79101615 3.23815963 5.82307205 5.19533493 6.3125 10.1875 C5.83451257 16.01894666 3.35485641 19.9511565 -0.75 23.9375 C-9.06708636 30.62343364 -20.03136297 34.97614597 -30.05859375 38.30859375 C-31.97916792 38.83620366 -31.97916792 38.83620366 -33 40 C-31.33324219 40.23783203 -31.33324219 40.23783203 -29.6328125 40.48046875 C-10.19265994 43.45091707 -10.19265994 43.45091707 -4.25390625 49.89453125 C-2.22165366 53.30694291 -2.80471836 56.09436714 -3 60 C-3.66 60 -4.32 60 -5 60 C-5.08894531 59.37480469 -5.17789063 58.74960937 -5.26953125 58.10546875 C-5.78917203 55.89231803 -5.78917203 55.89231803 -7.63671875 54.98828125 C-8.65185547 54.65376953 -8.65185547 54.65376953 -9.6875 54.3125 C-10.35136719 54.08175781 -11.01523437 53.85101562 -11.69921875 53.61328125 C-18.64027725 51.76311795 -25.49271623 51.78238267 -32.625 51.75 C-33.73746094 51.729375 -34.84992187 51.70875 -35.99609375 51.6875 C-45.14284176 51.64490746 -53.07459708 53.44028908 -61.75 56.1875 C-65.66690709 57.16672677 -68.97359962 57.14127721 -73 57 C-73.8125 54.875 -73.8125 54.875 -74 52 C-70.06670014 45.57561023 -64.5074836 43.08606156 -57.31689453 41.35351562 C-55.89546143 41.03930664 -55.89546143 41.03930664 -54.4453125 40.71875 C-47.88687005 39.10835322 -42.02221824 36.57803692 -35.9375 33.6875 C-34.93912109 33.22666016 -33.94074219 32.76582031 -32.91210938 32.29101562 C-18.7278686 26.68443385 -18.7278686 26.68443385 -9 16 C-8.24984805 12.95691709 -8.24984805 12.95691709 -9 10 C-11.172635 7.42714276 -12.97993838 5.51003081 -16 4 C-26.91088475 3.26294134 -36.75879609 3.42336175 -46.29296875 9.44921875 C-46.85628906 9.96097656 -47.41960938 10.47273437 -48 11 C-48 11.99 -48 12.98 -48 14 C-38.35628591 13.76530784 -30.49463314 10.32783442 -22 6 C-22.06873704 8.95569268 -22.23313954 11.17591115 -24.30859375 13.40625 C-32.10929295 19.31532469 -41.35994603 21.05469534 -51 21 C-54.75 20.0625 -54.75 20.0625 -57 19 C-57.82067887 13.13800804 -57.82067887 13.13800804 -55.828125 10.375 C-43.07795003 -1.28230283 -15.84312603 -8.38365419 0 0 Z " fill="#00A4A4" transform="translate(657,514)"/>
<path d="M0 0 C2.56034577 3.60048624 3.29418273 6.41706395 3 10.8125 C1.3173384 15.58004121 -1.21815494 18.51344367 -5 21.8125 C-5.59683594 22.33585938 -6.19367188 22.85921875 -6.80859375 23.3984375 C-15.34932376 30.12749751 -25.86186908 33.2405088 -36 36.8125 C-36 37.1425 -36 37.4725 -36 37.8125 C-34.44152344 38.05033203 -34.44152344 38.05033203 -32.8515625 38.29296875 C-23.34869045 39.84180459 -14.73989097 41.52402722 -7.375 48.1875 C-5.61464963 51.54816889 -5.70678264 54.07397871 -6 57.8125 C-6.66 57.8125 -7.32 57.8125 -8 57.8125 C-8.43054688 57.02488281 -8.86109375 56.23726562 -9.3046875 55.42578125 C-11.3931998 52.20639247 -12.43603522 51.85941823 -16.125 51 C-32.29433928 47.84942325 -49.39028437 48.6022866 -65 53.8125 C-68.88348484 55.10699495 -71.90697336 54.94453312 -76 54.8125 C-77 53.8125 -77 53.8125 -77.375 51.5625 C-76.83722466 47.61881415 -74.99073265 46.33800757 -72 43.8125 C-67.95863044 40.99797477 -63.9092372 39.92835567 -59.1875 38.8125 C-51.23776238 36.76894931 -43.89150871 33.79451283 -36.4375 30.375 C-35.43936279 29.92060547 -34.44122559 29.46621094 -33.4128418 28.99804688 C-22.24298907 23.79316911 -22.24298907 23.79316911 -13 15.8125 C-11.99694245 11.94356373 -11.6179985 9.71724039 -13.1875 6 C-15.17869346 3.59683548 -16.09964328 2.88828591 -19 1.8125 C-21.73791753 1.56542665 -24.32537395 1.43148962 -27.0625 1.4375 C-27.81821289 1.43911133 -28.57392578 1.44072266 -29.35253906 1.44238281 C-37.83809959 1.62677292 -45.82584468 3.63834468 -52 9.8125 C-52.33 10.4725 -52.66 11.1325 -53 11.8125 C-43.75440154 12.67255567 -34.32932154 9.3590136 -27 3.8125 C-26.34 3.8125 -25.68 3.8125 -25 3.8125 C-25.20406483 7.38363449 -25.91172289 8.71725365 -28.375 11.375 C-35.84893931 17.01604467 -45.75978364 19.20964397 -55 18.8125 C-59.70020266 17.36475825 -59.70020266 17.36475825 -61.1875 14.625 C-60.93783499 10.88002486 -59.72960143 9.28512078 -57.19140625 6.58203125 C-43.32263981 -4.61681224 -15.30938044 -11.16308991 0 0 Z " fill="#00A4A4" transform="translate(515,516.1875)"/>
<path d="M0 0 C0 0.99 0 1.98 0 3 C-0.59425781 3.20753906 -1.18851563 3.41507812 -1.80078125 3.62890625 C-22.97575113 11.49954047 -38.17814961 28.00885827 -47.7578125 48.0390625 C-49.79799554 52.90214031 -50.20031582 56.69163066 -50 62 C-49.67 62.33 -49.34 62.66 -49 63 C-40.54333081 62.82007087 -33.81332073 57.9644358 -27.8125 52.3125 C-22.7936979 47.01827584 -17.35290465 40.32966062 -16 33 C-26.05660501 35.37587293 -33.80613159 42.1641324 -40.59765625 49.78515625 C-42 51 -42 51 -45 51 C-41.65057625 41.1079195 -31.86707777 34.72143102 -23 30 C-17.36843726 27.51574705 -11.70436543 25.59834822 -5.6875 27.875 C-4 29 -4 29 -3 31 C-1.78805671 39.18927396 -4.73071101 44.34344595 -9.31640625 50.875 C-16.47526341 60.01223079 -27.65879301 66.31635268 -38.9609375 68.59765625 C-44.34573335 69.23940589 -48.97822335 69.31001726 -54 67 C-57.1670595 64.03948786 -58.73494214 61.91886726 -59.9375 57.75 C-60.14430533 45.3416802 -54.7373563 33.85973134 -46.625 24.625 C-45.10519769 23.06177476 -43.56407293 21.51892991 -42 20 C-41.31292969 19.30390625 -40.62585938 18.6078125 -39.91796875 17.890625 C-29.89328935 8.29371485 -14.33933464 -1.30357588 0 0 Z " fill="#00A4A4" transform="translate(728,502)"/>
<path d="M0 0 C3.84669592 3.65905222 4.33742283 7.00367895 4.625 12.125 C4.13477979 25.21239404 -3.90974909 34.42029743 -13 43 C-24.01985917 52.33385548 -36.29025893 57.40043139 -50.63671875 57.28125 C-56.20472033 56.81563314 -58.21503205 55.02296368 -61.875 50.875 C-64.71074552 43.62809479 -63.07705188 36.67769942 -60.26171875 29.6640625 C-58.25792995 25.43315241 -55.8320701 21.7188105 -53 18 C-52.51015625 17.33355469 -52.0203125 16.66710937 -51.515625 15.98046875 C-44.08843474 6.65971266 -32.88742311 -0.26540827 -21.5625 -3.75 C-13.5346187 -4.53320793 -6.98570103 -4.51011655 0 0 Z M-53 26.0625 C-57.07136236 32.36969445 -59.87279901 38.2902754 -59 46 C-57.29370291 49.83916846 -55.83508705 51.41715498 -52 53 C-42.40039682 54.60615929 -33.79157548 50.09032336 -26.16015625 44.6796875 C-17.54698591 37.98228561 -10.89883867 29.60024635 -8.9375 18.5625 C-9.00763432 14.56484386 -9.35905357 12.98171371 -12 10 C-26.50982999 0.21430071 -44.44201835 14.40068013 -53 26.0625 Z " fill="#00A4A4" transform="translate(585,515)"/>
</svg>
